 <svg  version="1.0" xmlns="http://www.w3.org/2000/svg"  width="143.000000pt" height="101.000000pt" viewBox="0 0 143.000000 101.000000"  preserveAspectRatio="xMidYMid meet">  <g transform="translate(0.000000,101.000000) scale(0.100000,-0.100000)" fill="#ffffff" stroke="none"> <path d="M463 898 c9 -127 14 -181 32 -283 7 -44 16 -105 20 -135 l6 -55 -48 -20 c-26 -11 -52 -18 -58 -16 -15 6 -109 12 -104 7 2 -2 28 -9 58 -14 48 -9 59 -7 107 15 61 28 59 19 39 163 -36 253 -54 442 -40 428 8 -8 60 -281 80 -420 9 -65 22 -118 27 -118 6 0 7 11 3 27 -6 25 -18 112 -30 223 -5 37 -47 240 -61 288 -2 6 -11 12 -20 12 -15 0 -16 -11 -11 -102z"/> <path d="M1404 871 c10 -15 -24 -35 -234 -143 -302 -155 -444 -230 -454 -239 -9 -8 8 -208 24 -284 10 -43 -7 -85 -35 -85 -16 0 -20 20 -35 175 -6 61 -13 122 -16 137 l-5 27 -35 -16 -34 -17 7 -75 c17 -169 2 -300 -39 -322 -17 -9 -18 -6 -12 43 11 94 -30 188 -104 238 l-33 23 -117 -51 c-184 -79 -262 -97 -262 -58 0 33 124 121 219 153 41 15 53 21 31 18 -83 -12 -260 -131 -260 -175 0 -63 85 -48 312 57 l78 36 39 -26 c57 -38 81 -95 83 -196 0 -69 3 -81 18 -81 61 0 87 140 65 341 -7 63 -6 67 15 74 12 4 23 5 25 3 1 -1 8 -64 14 -138 7 -74 14 -145 18 -157 8 -33 43 -40 65 -13 22 27 22 38 3 160 -8 52 -15 118 -15 145 l0 51 83 42 c45 23 120 63 167 88 47 25 157 82 245 126 88 45 170 90 183 101 26 24 29 47 6 47 -8 0 -13 -4 -10 -9z"/> <path d="M1298 829 c-32 -16 -58 -32 -58 -34 0 -5 119 52 129 61 13 12 -22 -1 -71 -27z"/> <path d="M650 810 c0 -5 5 -9 12 -7 16 3 25 -48 34 -180 5 -88 9 -110 20 -106 8 3 12 8 9 13 -2 4 -7 52 -10 106 -8 136 -10 151 -25 169 -14 17 -40 20 -40 5z"/> <path d="M636 764 c-4 -14 -4 -83 0 -153 7 -127 7 -129 -15 -136 -13 -4 -20 -9 -18 -12 3 -2 15 0 26 7 21 11 21 17 19 165 -2 85 -4 155 -4 155 -1 0 -5 -12 -8 -26z"/> <path d="M1190 770 c-9 -6 -10 -10 -3 -10 6 0 15 5 18 10 8 12 4 12 -15 0z"/> <path d="M1088 719 c-43 -21 -78 -41 -78 -44 0 -3 36 13 80 35 44 22 80 42 80 45 0 7 4 8 -82 -36z"/> <path d="M918 629 c-32 -16 -58 -32 -58 -34 0 -3 27 8 60 25 33 17 60 32 60 35 0 7 2 8 -62 -26z"/> <path d="M760 545 c-14 -8 -20 -14 -14 -15 5 0 19 7 30 15 24 18 16 19 -16 0z"/> <path d="M939 492 c10 -7 12 -24 9 -61 -4 -39 0 -58 15 -83 l19 -32 15 28 c8 15 12 30 10 33 -3 2 -8 -5 -12 -16 -15 -50 -32 -11 -37 88 -2 29 -8 46 -18 48 -12 4 -13 3 -1 -5z"/> <path d="M900 480 c-8 -5 -25 -10 -37 -10 -12 0 -25 -4 -28 -10 -9 -14 57 0 75 16 17 16 12 18 -10 4z"/> <path d="M794 428 l-19 -23 23 19 c21 18 27 26 19 26 -2 0 -12 -10 -23 -22z"/> <path d="M1045 440 c-3 -5 0 -7 9 -4 35 13 -17 -100 -64 -140 -34 -28 -39 -30 -58 -17 -9 5 -25 -4 -47 -26 -26 -26 -41 -34 -62 -31 -39 4 -55 40 -50 115 1 35 -1 57 -5 50 -13 -20 -9 -105 6 -142 26 -62 77 -65 130 -6 13 14 26 19 41 15 15 -4 32 3 54 22 36 30 95 139 87 160 -6 16 -32 19 -41 4z"/> <path d="M1013 415 c-3 -9 -3 -18 -1 -21 3 -3 8 4 11 16 6 23 -1 27 -10 5z"/> <path d="M820 370 c0 -50 22 -110 40 -110 16 0 32 42 32 84 -1 29 -7 46 -23 58 -37 31 -49 23 -49 -32z m50 15 c14 -17 16 -76 2 -101 -9 -16 -10 -16 -20 2 -6 11 -13 36 -17 56 -10 53 8 75 35 43z"/> <path d="M488 382 c-43 -19 -47 -28 -19 -37 11 -3 34 -22 51 -42 17 -19 32 -34 33 -32 2 2 0 22 -4 44 -3 22 -7 32 -8 23 -1 -22 -5 -22 -37 -1 l-26 16 24 13 c17 9 25 9 30 1 5 -7 8 -3 8 11 0 26 -2 26 -52 4z"/> <path d="M179 326 c-31 -12 -71 -33 -90 -47 -28 -20 -31 -24 -15 -27 10 -2 22 1 25 6 4 6 36 24 71 41 73 33 158 51 145 31 -6 -9 -2 -9 16 0 13 7 26 14 28 16 2 2 -25 4 -60 4 -44 0 -82 -8 -120 -24z"/> <path d="M215 289 c-22 -10 -29 -16 -15 -13 28 7 80 33 65 33 -5 0 -28 -9 -50 -20z"/> <path d="M135 260 c-13 -6 -15 -9 -5 -9 8 0 22 4 30 9 18 12 2 12 -25 0z"/> </g> </svg> 