<?xml version="1.0" standalone="no"?>
<!DOCTYPE svg PUBLIC "-//W3C//DTD SVG 20010904//EN"
 "http://www.w3.org/TR/2001/REC-SVG-20010904/DTD/svg10.dtd">
<svg version="1.0" xmlns="http://www.w3.org/2000/svg"
 width="279.000000pt" height="180.000000pt" viewBox="0 0 279.000000 180.000000"
 preserveAspectRatio="xMidYMid meet">
<metadata>
Created by potrace 1.10, written by Peter Selinger 2001-2011
</metadata>
<g transform="translate(0.000000,180.000000) scale(0.100000,-0.100000)"
stroke="none">
<path fill="currentColor" d="M1140 1550 c-21 -21 -22 -28 -16 -114 4 -50 9 -104 12 -121 2 -16 6
-48 8 -70 3 -22 10 -74 15 -115 15 -112 14 -147 -6 -156 -10 -4 -66 -8 -124
-9 -97 -1 -111 -3 -170 -32 -35 -18 -74 -41 -86 -53 -13 -11 -23 -18 -23 -15
0 9 -67 -70 -73 -87 -3 -10 3 -28 15 -44 20 -24 26 -26 75 -21 30 3 60 11 68
17 7 6 17 10 21 9 10 -2 31 6 135 51 85 38 104 38 141 -2 41 -44 48 -67 48
-152 0 -61 3 -76 21 -91 19 -19 21 -19 55 0 28 15 37 28 50 74 9 31 18 58 20
60 2 2 17 -10 33 -27 27 -27 34 -29 56 -19 14 7 33 28 43 48 15 32 22 37 59
42 25 3 54 15 73 31 17 14 42 26 56 26 31 0 101 63 121 109 27 64 27 96 0 114
-22 14 -27 14 -53 1 -21 -11 -30 -12 -33 -3 -2 6 -15 24 -30 40 l-26 29 -67
-24 c-38 -13 -68 -20 -68 -16 0 5 10 12 23 16 12 3 34 15 50 26 15 11 27 16
27 13 0 -3 12 2 28 13 15 10 41 26 57 34 17 8 98 50 180 93 83 43 171 89 197
102 56 27 87 67 71 92 -13 19 -84 20 -103 1 -3 -3 -75 -40 -160 -83 -85 -43
-191 -98 -235 -123 -100 -56 -185 -97 -190 -93 -4 4 -11 53 -20 146 -7 65 -33
113 -61 113 -15 0 -64 -46 -62 -59 0 -3 0 -40 -1 -81 -2 -58 -4 -70 -12 -52
-5 13 -7 28 -4 32 3 5 2 10 -3 12 -4 1 -18 53 -29 113 -31 158 -39 186 -61
208 -20 19 -20 19 -42 -3z m59 -165 c17 -88 38 -212 47 -275 9 -63 17 -116 19
-118 1 -2 18 5 38 14 l35 17 -5 122 c-6 124 1 215 17 215 16 0 29 -66 36 -187
l7 -121 86 45 c47 25 156 83 241 128 208 111 381 197 386 192 12 -12 -40 -45
-201 -128 -99 -51 -252 -130 -340 -175 l-160 -83 3 -83 c2 -46 10 -119 17
-163 12 -69 12 -83 -1 -102 -19 -29 -42 -29 -49 0 -4 18 -35 293 -35 311 0 3
-16 -2 -35 -12 l-35 -17 8 -65 c13 -122 7 -252 -14 -296 -10 -21 -26 -40 -34
-42 -13 -2 -15 8 -12 67 6 104 -22 167 -99 222 l-29 20 -118 -49 c-191 -81
-267 -99 -267 -64 0 24 89 103 152 134 68 33 176 48 223 30 19 -7 37 -3 80 16
30 14 56 26 57 27 2 1 -9 84 -23 186 -40 296 -49 417 -29 397 2 -2 17 -75 34
-163z m440 -414 c-2 -44 3 -67 16 -88 l18 -28 16 47 c16 48 55 97 67 86 9 -10
-15 -77 -43 -119 -29 -45 -64 -65 -88 -51 -14 7 -24 3 -46 -23 -39 -44 -65
-50 -94 -20 -68 67 -24 225 63 225 16 0 35 7 42 15 7 8 21 15 32 15 17 0 19
-7 17 -59z"/>
<path fill="currentColor" d="M1190 924 c-14 -7 -29 -15 -33 -17 -7 -2 79 -97 89 -97 1 0 -2 15 -7
32 -5 18 -9 48 -9 65 0 36 -3 38 -40 17z"/>
<path fill="currentColor" d="M893 876 c-47 -15 -133 -66 -133 -80 0 -16 73 1 170 39 52 21 99 41
105 46 14 14 -94 9 -142 -5z"/>
<path fill="currentColor" d="M1510 910 c0 -86 39 -137 59 -78 18 52 14 95 -11 112 -38 27 -48 20
-48 -34z"/>
</g>
</svg>
